<svg width="648" height="427" viewBox="0 0 648 427" fill="none" xmlns="http://www.w3.org/2000/svg">
<g clip-path="url(#clip0)">
<rect width="648" height="427" fill="white"/>
<rect width="648" height="427" fill="#EBE9DC"/>
<path d="M418 44H-24V486H418V44Z" fill="#EBE9DC"/>
<path d="M49.1511 402.595C49.1511 402.595 6.65276 386.926 15.5591 342.173C22.6311 306.592 55.9137 297.531 82.6105 302.813C114.567 309.134 125.794 275.409 123.915 257.84C122.037 240.27 137.993 215.717 179.585 213.883C217.907 212.181 237.752 259.983 251.123 276.293C271.632 301.332 302.638 282.348 326.727 266.989C353.159 250.149 380.209 281.177 380.209 332.604C380.209 384.031 340.871 404.142 340.871 404.142L49.1511 402.595Z" fill="white"/>
<path d="M296.781 266.613C296.781 266.613 314.395 256.315 306.373 243.298C298.351 230.281 283.477 237.662 277.245 244.138C271.013 250.613 266.04 260.934 275.322 268.912C284.008 276.382 296.781 266.613 296.781 266.613Z" fill="white"/>
<path d="M86.8537 263.121C86.8537 263.121 70.5881 257.508 66.6764 269.796C62.7426 282.083 75.649 287.542 83.2072 287.984C90.7654 288.404 100.114 285.929 100.114 275.608C100.114 265.928 86.8537 263.121 86.8537 263.121Z" fill="white"/>
<path d="M235.167 256.182L211.409 256.204L211.011 255.806C210.857 255.652 194.414 239.231 179.74 218.701C171.099 206.612 164.734 195.473 160.822 185.573C155.894 173.064 154.877 162.456 157.839 154.102C160.911 145.461 166.811 139.052 175.408 135.118C181.508 132.312 188.801 130.787 197.066 130.61L267.212 130.588C268.361 130.588 295.036 130.853 305.135 154.036C308.693 162.191 308.052 172.666 303.235 185.175C299.456 195.031 293.091 206.192 284.295 218.369C269.4 239.01 252.427 255.674 252.25 255.851L251.852 256.226L235.167 256.182Z" fill="#848418"/>
<path d="M267.19 131.914C267.853 131.914 294.085 132.046 303.876 154.566C318.815 188.865 251.3 254.9 251.3 254.9L235.167 254.878L211.962 254.9C211.962 254.9 146.59 189.816 159.076 154.566C165.706 135.848 184.757 132.223 197.066 131.936L267.19 131.914ZM267.19 129.262L197.066 129.284H197.044H197.022C188.58 129.483 181.11 131.03 174.834 133.925C165.905 138.035 159.762 144.688 156.579 153.682C153.507 162.345 154.524 173.241 159.607 186.103C163.563 196.092 169.972 207.319 178.679 219.518C193.42 240.138 209.929 256.646 210.083 256.801L210.857 257.574H211.962L235.167 257.552L251.3 257.574H252.383L253.156 256.823C253.333 256.646 270.372 239.916 285.334 219.165C294.174 206.899 300.605 195.628 304.428 185.683C309.356 172.821 309.997 162.014 306.307 153.528C303.898 148.003 300.362 143.295 295.787 139.516C292.141 136.511 287.831 134.08 283.013 132.334C274.858 129.35 267.963 129.262 267.19 129.262Z" fill="#747B2B"/>
<g opacity="0.4">
<g opacity="0.4">
<path opacity="0.4" d="M166.37 154.544C173 135.826 192.05 132.201 204.36 131.914L267.367 131.892C267.234 131.892 267.168 131.892 267.168 131.892L197.066 131.914C184.757 132.201 165.707 135.803 159.077 154.544C146.59 189.794 211.962 254.878 211.962 254.878H219.255C218.481 254.105 153.971 189.595 166.37 154.544Z" fill="#EFF2BD"/>
</g>
<g opacity="0.4">
<path opacity="0.4" d="M242.46 254.856H238.15L251.3 254.878C251.3 254.878 251.3 254.878 251.322 254.856H242.46Z" fill="#EFF2BD"/>
</g>
</g>
<path d="M279.411 172.534C279.278 174.788 278.77 178.677 277.157 184.446C274.394 194.214 269.488 205.728 262.593 218.678C254.858 233.154 246.393 246.038 240.935 253.928L234.968 253.906H234.901L222.481 253.928C217.244 246.237 209.265 233.883 201.774 219.783C194.812 206.678 189.795 194.943 186.834 184.91C183.099 172.18 184.182 167.252 184.337 166.743C185.022 164.158 186.038 162.102 188.889 160.334C191.63 158.633 195.541 157.616 199.917 157.461L264.405 157.439C264.847 157.461 268.25 157.727 271.875 159.671C276.648 162.257 278.306 165.793 279.212 168.6C279.389 169.108 279.543 170.456 279.411 172.534Z" fill="#9FA52D"/>
<path d="M250.349 400.385C245.863 400.363 241.333 400.208 236.935 400.075C232.736 399.943 228.382 399.788 224.095 399.766C223.697 399.766 223.299 399.766 222.879 399.766C219.387 399.766 216.161 399.876 213 400.119L211.564 400.23V168.114C211.564 167.406 211.608 166.699 211.674 165.948C211.586 161.749 211.652 158.478 211.652 158.257C211.652 143.03 221.155 130.654 232.846 130.654H248.139C255.057 130.654 265.952 134.455 274.615 139.892C280.892 143.826 291.433 152.025 291.433 162.743C291.433 171.053 286.174 177.838 279.72 177.838H251.698V400.385H250.349Z" fill="#BCC745"/>
<path d="M248.14 131.98C260.935 131.98 290.107 145.837 290.107 162.743C290.107 170.301 285.422 176.512 279.72 176.512H250.372V399.059C241.62 399.014 232.891 398.506 224.117 398.44C223.719 398.44 223.299 398.44 222.901 398.44C219.564 398.44 216.249 398.55 212.912 398.793V168.114C212.912 167.406 212.956 166.699 213.023 166.014C212.934 161.616 213.001 158.279 213.001 158.279C213.001 143.826 221.929 132.002 232.868 132.002H248.14V131.98ZM248.14 129.328H232.846C220.448 129.328 210.349 142.301 210.326 158.235C210.326 158.566 210.26 161.727 210.349 165.904C210.282 166.655 210.238 167.406 210.238 168.114V398.793V401.644L213.089 401.423C216.227 401.18 219.432 401.07 222.879 401.07C223.277 401.07 223.675 401.07 224.073 401.07C228.338 401.092 232.67 401.247 236.869 401.379C241.266 401.512 245.819 401.666 250.327 401.689L253.002 401.711V399.037V179.141H279.698C283.323 179.141 286.682 177.329 289.157 174.036C291.478 170.964 292.737 166.964 292.737 162.721C292.737 154.301 286.549 145.793 275.3 138.743C266.306 133.129 255.388 129.328 248.14 129.328Z" fill="#747B2B"/>
<path d="M213.177 287.166C212.293 287.166 211.564 286.437 211.564 285.553V266.989C211.564 266.105 212.293 265.376 213.177 265.376H217.641C220.934 265.376 223.609 268.05 223.609 271.343V281.177C223.609 284.47 220.934 287.144 217.641 287.144H213.177V287.166Z" fill="#848418"/>
<path d="M217.642 266.702C220.205 266.702 222.283 268.779 222.283 271.343V281.177C222.283 283.741 220.205 285.818 217.642 285.818H213.177C213.023 285.818 212.89 285.686 212.89 285.531V266.989C212.89 266.834 213.023 266.702 213.177 266.702H217.642ZM217.642 264.05H213.177C211.564 264.05 210.238 265.376 210.238 266.989V285.531C210.238 287.144 211.564 288.47 213.177 288.47H217.642C221.664 288.47 224.935 285.199 224.935 281.177V271.343C224.935 267.343 221.664 264.05 217.642 264.05Z" fill="#747B2B"/>
<path d="M213.177 210.28C212.293 210.28 211.564 209.551 211.564 208.667V190.125C211.564 189.241 212.293 188.512 213.177 188.512H217.641C220.934 188.512 223.609 191.186 223.609 194.479V204.313C223.609 207.606 220.934 210.28 217.641 210.28H213.177V210.28Z" fill="#848418"/>
<path d="M217.642 189.816C220.205 189.816 222.283 191.893 222.283 194.457V204.291C222.283 206.855 220.205 208.932 217.642 208.932H213.177C213.023 208.932 212.89 208.8 212.89 208.645V190.103C212.89 189.948 213.023 189.816 213.177 189.816H217.642V189.816ZM217.642 187.164H213.177C211.564 187.164 210.238 188.49 210.238 190.103V208.645C210.238 210.258 211.564 211.584 213.177 211.584H217.642C221.664 211.584 224.935 208.314 224.935 204.291V194.457C224.935 190.457 221.664 187.164 217.642 187.164Z" fill="#747B2B"/>
<g opacity="0.4">
<path opacity="0.4" d="M217.752 171.163C217.752 170.456 217.796 169.749 217.863 169.064C217.774 164.666 217.841 161.329 217.841 161.329C217.841 146.875 226.769 135.052 237.708 135.052H253.002C258.814 135.052 267.985 137.903 276.273 142.588C266.947 136.113 255.101 132.002 248.14 132.002H232.846C221.929 132.002 212.979 143.826 212.979 158.279C212.979 158.279 212.912 161.616 213.001 166.014C212.934 166.699 212.89 167.406 212.89 168.114V398.793C214.503 398.661 216.139 398.594 217.752 398.528V171.163Z" fill="#EFF2BD"/>
</g>
<path d="M143.341 355.853C133.573 355.853 125.308 348.229 124.512 338.505C124.468 337.996 124.446 337.488 124.446 336.958V326.571C124.446 324.847 124.689 323.123 125.153 321.465C127.451 313.355 134.921 307.675 143.341 307.675H248.758C257.178 307.675 264.648 313.333 266.947 321.465C267.411 323.123 267.654 324.847 267.654 326.571V336.958C267.654 337.488 267.632 337.996 267.588 338.505C266.792 348.229 258.527 355.853 248.758 355.853H143.341Z" fill="#BCC745"/>
<path d="M248.758 309.001C256.781 309.001 263.587 314.438 265.665 321.819C266.085 323.322 266.328 324.935 266.328 326.571V336.958C266.328 337.444 266.306 337.93 266.262 338.394C265.532 347.389 257.93 354.527 248.758 354.527H143.341C134.17 354.527 126.567 347.389 125.838 338.394C125.794 337.93 125.772 337.444 125.772 336.958V326.571C125.772 324.935 125.993 323.322 126.435 321.819C128.512 314.438 135.319 309.001 143.341 309.001H248.758ZM248.758 306.349H143.341C134.347 306.349 126.324 312.404 123.871 321.09C123.363 322.88 123.12 324.714 123.12 326.571V336.958C123.12 337.51 123.142 338.063 123.186 338.615C123.606 343.632 125.882 348.317 129.617 351.787C133.374 355.278 138.258 357.179 143.341 357.179H248.758C253.841 357.179 258.725 355.256 262.482 351.787C266.217 348.317 268.494 343.654 268.914 338.615C268.958 338.085 268.98 337.51 268.98 336.958V326.571C268.98 324.714 268.715 322.88 268.228 321.09C265.775 312.404 257.775 306.349 248.758 306.349Z" fill="#747B2B"/>
<path d="M195.055 319.167C192.116 319.167 189.729 316.78 189.729 313.841V309.377C189.729 308.846 190.149 308.426 190.679 308.426H209.221C209.752 308.426 210.172 308.846 210.172 309.377V313.841C210.172 316.78 207.785 319.167 204.845 319.167H195.055Z" fill="#848418"/>
<path d="M209.243 309.112C209.398 309.112 209.531 309.244 209.531 309.399V313.863C209.531 316.427 207.453 318.504 204.89 318.504H195.055C192.492 318.504 190.414 316.427 190.414 313.863V309.399C190.414 309.244 190.547 309.112 190.702 309.112H209.243ZM209.243 307.764H190.702C189.795 307.764 189.066 308.493 189.066 309.399V313.863C189.066 317.156 191.762 319.852 195.055 319.852H204.89C208.183 319.852 210.879 317.156 210.879 313.863V309.399C210.879 308.493 210.15 307.764 209.243 307.764Z" fill="#747B2B"/>
<g opacity="0.4">
<path opacity="0.4" d="M265.687 321.996C263.609 314.614 256.803 309.178 248.78 309.178H143.363C135.341 309.178 128.534 314.614 126.457 321.996C126.037 323.521 125.794 325.112 125.794 326.747V331.388C125.794 329.753 126.015 328.14 126.457 326.637C128.534 319.255 135.341 313.819 143.363 313.819H248.78C256.803 313.819 263.609 319.255 265.687 326.637C266.107 328.14 266.35 329.753 266.35 331.388V326.747C266.328 325.09 266.107 323.499 265.687 321.996Z" fill="#EFF2BD"/>
</g>
<path d="M266.328 326.571V336.958C266.328 337.444 266.305 337.93 266.261 338.394H125.838C125.794 337.93 125.771 337.444 125.771 336.958V326.571C125.771 324.935 125.992 323.322 126.434 321.819H265.687C266.107 323.344 266.328 324.935 266.328 326.571Z" fill="#9FA52D"/>
<path d="M150.347 333.068C149.684 333.068 149.132 332.515 149.132 331.852V326.195C149.132 322.46 152.159 319.432 155.894 319.432H168.381C172.116 319.432 175.143 322.46 175.143 326.195V331.852C175.143 332.515 174.591 333.068 173.928 333.068H150.347Z" fill="#848418"/>
<path d="M168.358 320.272C171.629 320.272 174.259 322.924 174.259 326.173V331.83C174.259 332.029 174.104 332.206 173.883 332.206H150.347C150.148 332.206 149.971 332.051 149.971 331.83V326.173C149.971 322.902 152.623 320.272 155.872 320.272H168.358ZM168.358 318.57H155.872C151.673 318.57 148.27 321.996 148.27 326.173V331.83C148.27 332.98 149.198 333.908 150.347 333.908H173.906C175.055 333.908 175.983 332.98 175.983 331.83V326.173C175.983 321.974 172.557 318.57 168.358 318.57Z" fill="#747B2B"/>
<path d="M216.338 332.869C215.807 332.869 215.387 332.449 215.387 331.919V327.455C215.387 324.515 217.774 322.128 220.713 322.128H230.548C233.487 322.128 235.874 324.515 235.874 327.455V331.919C235.874 332.449 235.454 332.869 234.924 332.869H216.338Z" fill="#848418"/>
<path d="M230.526 322.814C233.089 322.814 235.167 324.891 235.167 327.455V331.919C235.167 332.074 235.034 332.206 234.879 332.206H216.337C216.183 332.206 216.05 332.074 216.05 331.919V327.455C216.05 324.891 218.127 322.814 220.691 322.814H230.526ZM230.526 321.465H220.691C217.398 321.465 214.702 324.162 214.702 327.455V331.919C214.702 332.825 215.431 333.554 216.337 333.554H234.879C235.785 333.554 236.515 332.825 236.515 331.919V327.455C236.515 324.162 233.818 321.465 230.526 321.465Z" fill="#747B2B"/>
<path d="M98.7213 403.28C72.6875 403.28 49.6151 389.622 41.2613 369.268C40.4436 367.257 40.6425 365.091 41.8359 363.323C43.0514 361.533 45.0183 360.45 47.1399 360.45C48.1123 360.45 49.0405 360.671 49.9466 361.113C56.3556 364.207 65.3503 366.726 76.6434 368.583C79.0965 368.981 81.7043 369.356 84.3343 369.71C98.5225 371.522 115.783 372.45 135.606 372.45H136.8V403.28H98.7213V403.28Z" fill="#BCC745"/>
<path d="M47.14 361.665C47.8914 361.665 48.6649 361.842 49.4163 362.196C54.9192 364.848 63.4056 367.632 76.4446 369.776C78.8535 370.174 81.4392 370.55 84.1796 370.903C97.1965 372.561 113.97 373.644 135.606 373.644V402.064H98.6993C72.5108 402.064 50.2782 388.141 42.3443 368.804C40.8857 365.201 43.7145 361.665 47.14 361.665ZM47.14 359.257V361.665V359.257C44.6206 359.257 42.2559 360.538 40.8415 362.66C39.4271 364.759 39.184 367.345 40.1564 369.732C42.2117 374.771 45.2173 379.5 49.0627 383.788C52.8418 388.009 57.3502 391.699 62.4774 394.771C73.0633 401.136 85.6161 404.495 98.7435 404.495H135.65H138.059V402.086V373.666V371.257H135.65C115.871 371.257 98.6772 370.351 84.5332 368.539C81.9033 368.207 79.3176 367.831 76.8866 367.434C65.6819 365.599 56.8198 363.102 50.4992 360.074C49.4163 359.522 48.2892 359.257 47.14 359.257Z" fill="#747B2B"/>
<path d="M45.4825 361.798C42.8747 362.704 41.1288 365.665 42.3664 368.671C50.3003 388.009 72.5329 401.932 98.7214 401.932H135.628V388.893H98.7214C75.4059 388.893 55.2286 377.865 45.4825 361.798Z" fill="#9FA52D"/>
<path d="M231.233 249.464C227.94 249.464 225.266 246.79 225.266 243.497V233.662C225.266 230.369 227.94 227.695 231.233 227.695H235.697C236.581 227.695 237.311 228.424 237.311 229.308V247.85C237.311 248.734 236.581 249.464 235.697 249.464H231.233V249.464Z" fill="#848418"/>
<path d="M235.697 228.999C235.852 228.999 235.984 229.132 235.984 229.286V247.828C235.984 247.983 235.852 248.116 235.697 248.116H231.233C228.669 248.116 226.592 246.038 226.592 243.475V233.64C226.592 231.077 228.669 228.999 231.233 228.999H235.697V228.999ZM235.697 226.347H231.233C227.211 226.347 223.94 229.618 223.94 233.64V243.475C223.94 247.497 227.211 250.768 231.233 250.768H235.697C237.31 250.768 238.636 249.442 238.636 247.828V229.286C238.636 227.673 237.31 226.347 235.697 226.347Z" fill="#747B2B"/>
<path d="M122.125 377.069C114.28 377.069 107.141 372.097 104.401 364.715C103.628 362.616 103.23 360.428 103.23 358.174V347.787C103.23 347.742 103.23 347.698 103.23 347.632C103.296 337.289 111.782 328.891 122.125 328.891H271.742C281.975 328.891 290.461 337.223 290.638 347.455C290.638 347.566 290.638 347.676 290.638 347.787V358.174C290.638 360.384 290.262 362.572 289.489 364.649C286.748 372.075 279.632 377.069 271.742 377.069H122.125Z" fill="#BCC745"/>
<path d="M271.742 330.217C281.312 330.217 289.157 337.952 289.312 347.499C289.312 347.588 289.312 347.698 289.312 347.787V358.174C289.312 360.273 288.936 362.306 288.251 364.185C285.776 370.903 279.3 375.743 271.742 375.743H122.125C114.589 375.743 108.136 370.947 105.639 364.251C104.931 362.351 104.556 360.295 104.556 358.174V347.787C104.556 347.742 104.556 347.72 104.556 347.676C104.622 338.063 112.49 330.217 122.125 330.217H271.742ZM271.742 327.565H122.125C111.053 327.565 101.992 336.56 101.904 347.61C101.904 347.676 101.904 347.742 101.904 347.787V358.174C101.904 360.583 102.324 362.925 103.164 365.179C106.103 373.091 113.727 378.395 122.125 378.395H271.742C280.184 378.395 287.809 373.047 290.726 365.113C291.544 362.881 291.964 360.56 291.964 358.174V347.787C291.964 347.676 291.964 347.566 291.964 347.411C291.875 342.107 289.732 337.134 285.908 333.377C282.107 329.643 277.068 327.565 271.742 327.565Z" fill="#747B2B"/>
<path d="M141.153 343.013C137.617 343.013 134.766 340.14 134.766 336.626V329.377H160.756V336.626C160.756 340.162 157.883 343.013 154.369 343.013H141.153Z" fill="#848418"/>
<path d="M159.916 330.217V336.604C159.916 339.654 157.441 342.151 154.369 342.151H141.153C138.103 342.151 135.606 339.676 135.606 336.604V330.217H159.916ZM161.618 328.515H159.916H135.628H133.927V330.217V336.604C133.927 340.604 137.175 343.853 141.175 343.853H154.391C158.391 343.853 161.64 340.604 161.64 336.604V330.217V328.515H161.618Z" fill="#747B2B"/>
<path d="M235.52 343.013C231.984 343.013 229.133 340.14 229.133 336.626V329.377H255.123V336.626C255.123 340.162 252.25 343.013 248.736 343.013H235.52Z" fill="#848418"/>
<path d="M254.283 330.217V336.604C254.283 339.654 251.808 342.151 248.736 342.151H235.52C232.47 342.151 229.973 339.676 229.973 336.604V330.217H254.283ZM255.985 328.515H254.283H229.995H228.293V330.217V336.604C228.293 340.604 231.542 343.853 235.542 343.853H248.758C252.758 343.853 256.007 340.604 256.007 336.604V330.217V328.515H255.985Z" fill="#747B2B"/>
<g opacity="0.4">
<path opacity="0.4" d="M289.312 347.499C289.157 337.974 281.311 330.217 271.742 330.217H122.125C112.512 330.217 104.622 338.063 104.556 347.676C104.556 347.72 104.556 347.742 104.556 347.787V354.085C104.556 354.041 104.556 354.019 104.556 353.975C104.622 344.361 112.49 336.516 122.125 336.516H271.742C281.311 336.516 289.157 344.273 289.312 353.798C289.312 353.886 289.312 353.997 289.312 354.085V347.787C289.312 347.698 289.312 347.588 289.312 347.499Z" fill="#EFF2BD"/>
</g>
<path d="M254.858 157.262C256.945 157.262 258.637 154.076 258.637 150.146C258.637 146.216 256.945 143.03 254.858 143.03C252.771 143.03 251.079 146.216 251.079 150.146C251.079 154.076 252.771 157.262 254.858 157.262Z" fill="#454A4C"/>
<path d="M268.074 157.262C270.161 157.262 271.853 154.076 271.853 150.146C271.853 146.216 270.161 143.03 268.074 143.03C265.986 143.03 264.294 146.216 264.294 150.146C264.294 154.076 265.986 157.262 268.074 157.262Z" fill="#454A4C"/>
<path d="M271.853 167.473H282.593C286.814 167.473 286.814 161.926 291.013 161.926C295.234 161.926 295.234 167.473 299.433 167.473H301.179" stroke="#454A4C" stroke-width="2" stroke-miterlimit="10" stroke-linecap="round"/>
<path d="M308.141 175.009L300.627 167.473L308.317 159.782" stroke="#454A4C" stroke-width="2" stroke-miterlimit="10" stroke-linecap="round"/>
<path d="M289.312 347.787V358.174C289.312 360.273 288.936 362.306 288.251 364.185C287.765 364.229 287.279 364.251 286.77 364.251H105.661C104.954 362.351 104.578 360.295 104.578 358.174V347.787C104.578 347.742 104.578 347.72 104.578 347.676H286.792C287.654 347.676 288.494 347.61 289.334 347.499C289.312 347.588 289.312 347.698 289.312 347.787Z" fill="#9FA52D"/>
<path d="M188.116 359.809C187.453 359.809 186.9 359.257 186.9 358.594V352.936C186.9 349.201 189.928 346.173 193.663 346.173H206.15C209.884 346.173 212.912 349.201 212.912 352.936V358.594C212.912 359.257 212.36 359.809 211.697 359.809H188.116Z" fill="#848418"/>
<path d="M206.127 347.013C209.398 347.013 212.028 349.665 212.028 352.914V358.571C212.028 358.77 211.873 358.947 211.652 358.947H188.116C187.917 358.947 187.74 358.792 187.74 358.571V352.914C187.74 349.643 190.392 347.013 193.641 347.013H206.127ZM206.127 345.311H193.641C189.442 345.311 186.038 348.737 186.038 352.914V358.571C186.038 359.721 186.967 360.649 188.116 360.649H211.674C212.824 360.649 213.752 359.721 213.752 358.571V352.914C213.752 348.715 210.326 345.311 206.127 345.311Z" fill="#747B2B"/>
<path d="M101.55 401.6H93.5941C83.9364 401.6 76.0247 393.688 76.0247 384.031V373.644C76.0247 372.318 76.1794 371.014 76.4667 369.776C78.8756 370.174 81.4613 370.55 84.2017 370.903C84.0691 371.809 83.9807 372.715 83.9807 373.644V384.031C83.9807 393.688 91.8924 401.6 101.55 401.6Z" fill="#9FA52D"/>
<path d="M103.561 402.926C93.1522 402.926 84.6658 394.44 84.6658 384.031V373.644C84.6658 363.235 93.1522 354.748 103.561 354.748H286.77C297.179 354.748 305.666 363.235 305.666 373.644V384.031C305.666 394.44 297.179 402.926 286.77 402.926H103.561Z" fill="#BCC745"/>
<path d="M286.77 356.074C296.428 356.074 304.34 363.986 304.34 373.644V384.031C304.34 393.688 296.428 401.6 286.77 401.6H103.561C93.9034 401.6 85.9916 393.688 85.9916 384.031V373.644C85.9916 363.986 93.9034 356.074 103.561 356.074H286.77ZM286.77 353.422H103.561C98.1687 353.422 93.1078 355.522 89.2845 359.367C85.4612 363.19 83.3396 368.273 83.3396 373.644V384.031C83.3396 389.423 85.4391 394.484 89.2845 398.307C93.1078 402.13 98.1908 404.252 103.561 404.252H286.77C292.163 404.252 297.223 402.153 301.047 398.307C304.87 394.484 306.992 389.401 306.992 384.031V373.644C306.992 368.251 304.892 363.19 301.047 359.367C297.223 355.522 292.163 353.422 286.77 353.422Z" fill="#747B2B"/>
<path d="M129.75 375.964C124.269 375.964 119.805 371.5 119.805 366.019V354.748H160.248V366.019C160.248 371.5 155.783 375.964 150.303 375.964H129.75Z" fill="#848418"/>
<path d="M158.922 356.074V366.019C158.922 370.771 155.054 374.638 150.303 374.638H129.75C124.998 374.638 121.131 370.771 121.131 366.019V356.074H158.922ZM161.574 353.422H158.922H121.131H118.479V356.074V366.019C118.479 372.229 123.54 377.29 129.75 377.29H150.303C156.513 377.29 161.574 372.229 161.574 366.019V356.074V353.422Z" fill="#747B2B"/>
<path d="M242.46 375.964C236.979 375.964 232.515 371.5 232.515 366.019V354.748H272.958V366.019C272.958 371.5 268.493 375.964 263.013 375.964H242.46Z" fill="#848418"/>
<path d="M271.632 356.074V366.019C271.632 370.771 267.764 374.638 263.013 374.638H242.46C237.708 374.638 233.841 370.771 233.841 366.019V356.074H271.632ZM274.284 353.422H271.632H233.841H231.189V356.074V366.019C231.189 372.229 236.25 377.29 242.46 377.29H263.013C269.223 377.29 274.284 372.229 274.284 366.019V356.074V353.422Z" fill="#747B2B"/>
<g opacity="0.4">
<path opacity="0.4" d="M286.77 356.516H103.561C93.9035 356.516 85.9917 364.428 85.9917 374.086V381.047C85.9917 371.389 93.9035 363.478 103.561 363.478H286.77C296.428 363.478 304.34 371.389 304.34 381.047V374.086C304.34 364.428 296.45 356.516 286.77 356.516Z" fill="#EFF2BD"/>
</g>
<path d="M286.77 385.025H103.561C94.9643 385.025 87.7376 378.749 86.279 370.55C86.1022 371.566 85.9917 372.583 85.9917 373.644V384.031C85.9917 393.688 93.9035 401.6 103.561 401.6H286.77C296.428 401.6 304.34 393.688 304.34 384.031V373.644C304.34 372.583 304.229 371.566 304.052 370.55C302.594 378.749 295.389 385.025 286.77 385.025Z" fill="#9FA52D"/>
<path d="M176.602 402.926V391.655C176.602 386.174 181.066 381.71 186.547 381.71H207.1C212.581 381.71 217.045 386.174 217.045 391.655V402.926H176.602Z" fill="#848418"/>
<path d="M207.1 383.036C211.851 383.036 215.719 386.904 215.719 391.655V401.6H177.928V391.655C177.928 386.904 181.795 383.036 186.547 383.036H207.1ZM207.1 380.384H186.547C180.337 380.384 175.276 385.445 175.276 391.655V401.6V404.252H177.928H215.719H218.371V401.6V391.655C218.371 385.445 213.332 380.384 207.1 380.384Z" fill="#747B2B"/>
<path d="M236.007 307.719V195.252C236.007 185.683 241.974 177.904 249.311 177.904H249.355L252.228 178.081V307.697H236.007V307.719Z" fill="#EFF48D"/>
<path d="M249.311 179.053L251.079 179.164V306.57H237.156V195.252C237.156 186.302 242.592 179.053 249.311 179.053ZM249.377 176.777H249.311C245.333 176.777 241.62 178.788 238.902 182.434C236.316 185.882 234.879 190.435 234.879 195.252V306.57V308.846H237.156H251.079H253.355V306.57V179.164V177.02L251.211 176.887L249.443 176.777H249.377Z" fill="#747B2B"/>
<path opacity="0.39" d="M236.271 188.49H251.078" stroke="#747B2B" stroke-width="10.2982" stroke-miterlimit="10"/>
<path opacity="0.39" d="M236.271 199.385H251.078" stroke="#747B2B" stroke-width="10.2982" stroke-miterlimit="10"/>
<path opacity="0.39" d="M236.271 210.303H251.078" stroke="#747B2B" stroke-width="10.2982" stroke-miterlimit="10"/>
<path opacity="0.39" d="M236.271 221.198H251.078" stroke="#747B2B" stroke-width="10.2982" stroke-miterlimit="10"/>
<path opacity="0.39" d="M236.271 232.093H251.078" stroke="#747B2B" stroke-width="10.2982" stroke-miterlimit="10"/>
<path opacity="0.39" d="M236.271 243.01H251.078" stroke="#747B2B" stroke-width="10.2982" stroke-miterlimit="10"/>
<path opacity="0.39" d="M236.271 253.906H251.078" stroke="#747B2B" stroke-width="10.2982" stroke-miterlimit="10"/>
<path opacity="0.39" d="M236.271 264.823H251.078" stroke="#747B2B" stroke-width="10.2982" stroke-miterlimit="10"/>
<path opacity="0.39" d="M236.271 275.719H251.078" stroke="#747B2B" stroke-width="10.2982" stroke-miterlimit="10"/>
<path opacity="0.39" d="M236.271 286.636H251.078" stroke="#747B2B" stroke-width="10.2982" stroke-miterlimit="10"/>
<path opacity="0.39" d="M236.271 297.531H251.078" stroke="#747B2B" stroke-width="10.2982" stroke-miterlimit="10"/>
<path d="M234.835 296.117H212.89V306.57H234.835V296.117Z" fill="#9FA52D"/>
<path d="M353.159 403.235H362.971" stroke="#747B2B" stroke-width="10.883" stroke-miterlimit="10" stroke-linecap="round"/>
<path d="M51.1621 403.235H344.54" stroke="#747B2B" stroke-width="10.883" stroke-miterlimit="10" stroke-linecap="round"/>
<path d="M15.5591 403.235H39.8912" stroke="#747B2B" stroke-width="10.883" stroke-miterlimit="10" stroke-linecap="round"/>
<path d="M83.824 25.8C90.032 25.8 95.44 26.824 100.048 28.872C104.656 30.92 108.208 33.864 110.704 37.704C113.2 41.544 114.448 46.024 114.448 51.144C114.448 56.264 113.2 60.744 110.704 64.584C108.208 68.424 104.656 71.368 100.048 73.416C95.44 75.464 90.032 76.488 83.824 76.488H74.128V93H51.472V25.8H83.824ZM82.384 59.016C85.456 59.016 87.76 58.344 89.296 57C90.832 55.592 91.6 53.64 91.6 51.144C91.6 48.648 90.832 46.728 89.296 45.384C87.76 43.976 85.456 43.272 82.384 43.272H74.128V59.016H82.384ZM180.608 40.488L159.008 94.056C156.256 100.904 152.832 105.704 148.736 108.456C144.64 111.208 139.616 112.584 133.664 112.584C130.72 112.584 127.744 112.136 124.736 111.24C121.792 110.408 119.456 109.288 117.728 107.88L124.928 93C126.016 93.832 127.232 94.504 128.576 95.016C129.984 95.528 131.328 95.784 132.608 95.784C134.976 95.784 136.768 95.08 137.984 93.672L115.904 40.488H138.176L149.024 68.616L160.064 40.488H180.608ZM224.019 91.176C220.755 93.032 216.307 93.96 210.675 93.96C203.315 93.96 197.651 92.2 193.683 88.68C189.715 85.096 187.731 79.752 187.731 72.648V59.208H180.531V43.368H187.731V28.68H209.427V43.368H220.179V59.208H209.427V72.456C209.427 74.056 209.843 75.304 210.675 76.2C211.507 77.096 212.595 77.544 213.939 77.544C215.795 77.544 217.427 77.064 218.835 76.104L224.019 91.176ZM265.968 39.528C272.432 39.528 277.616 41.48 281.52 45.384C285.488 49.288 287.472 55.176 287.472 63.048V93H265.776V66.792C265.776 60.776 263.632 57.768 259.344 57.768C256.912 57.768 254.928 58.632 253.392 60.36C251.92 62.024 251.184 64.68 251.184 68.328V93H229.488V21.768H251.184V44.712C255.216 41.256 260.144 39.528 265.968 39.528ZM325.575 93.96C319.751 93.96 314.503 92.808 309.831 90.504C305.223 88.136 301.607 84.904 298.983 80.808C296.359 76.648 295.047 71.944 295.047 66.696C295.047 61.448 296.359 56.776 298.983 52.68C301.607 48.52 305.223 45.288 309.831 42.984C314.503 40.68 319.751 39.528 325.575 39.528C331.463 39.528 336.711 40.68 341.319 42.984C345.991 45.288 349.607 48.52 352.167 52.68C354.791 56.776 356.103 61.448 356.103 66.696C356.103 71.944 354.791 76.648 352.167 80.808C349.607 84.904 345.991 88.136 341.319 90.504C336.711 92.808 331.463 93.96 325.575 93.96ZM325.575 77.064C328.071 77.064 330.119 76.168 331.719 74.376C333.319 72.52 334.119 69.96 334.119 66.696C334.119 63.432 333.319 60.904 331.719 59.112C330.119 57.32 328.071 56.424 325.575 56.424C323.079 56.424 321.031 57.32 319.431 59.112C317.831 60.904 317.031 63.432 317.031 66.696C317.031 69.96 317.831 72.52 319.431 74.376C321.031 76.168 323.079 77.064 325.575 77.064ZM399.374 39.528C405.838 39.528 411.022 41.48 414.926 45.384C418.894 49.288 420.878 55.176 420.878 63.048V93H399.182V66.792C399.182 60.776 397.038 57.768 392.75 57.768C390.318 57.768 388.334 58.632 386.798 60.36C385.326 62.024 384.59 64.68 384.59 68.328V93H362.894V40.488H383.534V45.672C385.582 43.624 387.95 42.088 390.638 41.064C393.326 40.04 396.238 39.528 399.374 39.528Z" fill="#454A4C"/>
<path d="M606.621 122.552H409.379C403.095 122.552 398 127.647 398 133.931V278.069C398 284.354 403.095 289.448 409.379 289.448H606.621C612.905 289.448 618 284.354 618 278.069V133.931C618 127.647 612.905 122.552 606.621 122.552ZM587.655 130.138H591.448C593.543 130.138 595.242 131.836 595.242 133.931C595.242 136.026 593.543 137.724 591.448 137.724H587.655C585.56 137.724 583.862 136.026 583.862 133.931C583.862 131.836 585.56 130.138 587.655 130.138ZM481.448 130.138H572.483C574.578 130.138 576.276 131.836 576.276 133.931C576.276 136.026 574.578 137.724 572.483 137.724H481.448C479.354 137.724 477.655 136.026 477.655 133.931C477.655 131.836 479.354 130.138 481.448 130.138ZM462.483 130.138H466.276C468.371 130.138 470.069 131.836 470.069 133.931C470.069 136.026 468.371 137.724 466.276 137.724H462.483C460.388 137.724 458.689 136.026 458.689 133.931C458.689 131.836 460.388 130.138 462.483 130.138ZM447.311 130.138H451.104C453.199 130.138 454.897 131.836 454.897 133.931C454.897 136.026 453.199 137.724 451.104 137.724H447.311C445.216 137.724 443.517 136.026 443.517 133.931C443.517 131.836 445.216 130.138 447.311 130.138ZM432.138 130.138C434.233 130.138 435.931 131.836 435.931 133.931C435.931 136.026 434.233 137.724 432.138 137.724C430.043 137.724 428.345 136.026 428.345 133.931C428.345 131.836 430.043 130.138 432.138 130.138ZM420.759 130.138C422.854 130.138 424.552 131.836 424.552 133.931C424.552 136.026 422.854 137.724 420.759 137.724C418.664 137.724 416.966 136.026 416.966 133.931C416.966 131.836 418.664 130.138 420.759 130.138ZM409.379 130.138C411.474 130.138 413.173 131.836 413.173 133.931C413.173 136.026 411.474 137.724 409.379 137.724C407.285 137.724 405.586 136.026 405.586 133.931C405.586 131.836 407.285 130.138 409.379 130.138ZM610.414 168.069V278.069C610.414 280.164 608.715 281.862 606.621 281.862H508H409.379C407.285 281.862 405.586 280.164 405.586 278.069V168.069V149.103C405.586 147.009 407.285 145.31 409.379 145.31H508H606.621C608.715 145.31 610.414 147.009 610.414 149.103V168.069V168.069ZM606.621 137.724H602.827C600.733 137.724 599.034 136.025 599.034 133.931C599.034 131.836 600.733 130.137 602.827 130.137H606.621C608.715 130.137 610.414 131.836 610.414 133.931C610.414 136.026 608.715 137.724 606.621 137.724Z" fill="#D2DCF0"/>
<path d="M508 281.862H606.621C608.715 281.862 610.414 280.164 610.414 278.069V168.069H508V281.862ZM564.897 187.034V183.241C564.897 181.146 566.595 179.448 568.69 179.448H595.242C597.336 179.448 599.035 181.146 599.035 183.241V187.034V217.379C599.035 219.474 597.336 221.173 595.242 221.173H568.69C566.595 221.173 564.897 219.474 564.897 217.379V187.034ZM519.379 187.034V183.241C519.379 181.146 521.078 179.448 523.173 179.448H549.724C551.819 179.448 553.518 181.146 553.518 183.241V187.034V217.379C553.518 219.474 551.819 221.173 549.724 221.173H523.172C521.078 221.173 519.379 219.474 519.379 217.379V187.034H519.379ZM523.172 232.552H526.966H595.242C597.336 232.552 599.035 234.25 599.035 236.345V266.69C599.035 268.785 597.336 270.483 595.242 270.483H526.966H523.172C521.078 270.483 519.379 268.785 519.379 266.69V236.345C519.379 234.25 521.078 232.552 523.172 232.552Z" fill="white"/>
<path d="M409.379 137.724C411.474 137.724 413.173 136.026 413.173 133.931C413.173 131.836 411.474 130.138 409.379 130.138C407.284 130.138 405.586 131.836 405.586 133.931C405.586 136.026 407.284 137.724 409.379 137.724Z" fill="#FF6469"/>
<path d="M420.759 137.724C422.854 137.724 424.552 136.026 424.552 133.931C424.552 131.836 422.854 130.138 420.759 130.138C418.664 130.138 416.966 131.836 416.966 133.931C416.966 136.026 418.664 137.724 420.759 137.724Z" fill="#FFE169"/>
<path d="M432.138 137.724C434.233 137.724 435.931 136.026 435.931 133.931C435.931 131.836 434.233 130.138 432.138 130.138C430.043 130.138 428.344 131.836 428.344 133.931C428.344 136.026 430.043 137.724 432.138 137.724Z" fill="#87E1AA"/>
<path d="M447.311 137.724H451.104C453.199 137.724 454.897 136.025 454.897 133.931C454.897 131.836 453.199 130.137 451.104 130.137H447.311C445.216 130.137 443.517 131.836 443.517 133.931C443.517 136.026 445.216 137.724 447.311 137.724Z" fill="#E4EAF6"/>
<path d="M462.483 137.724H466.276C468.371 137.724 470.069 136.025 470.069 133.931C470.069 131.836 468.371 130.137 466.276 130.137H462.483C460.388 130.137 458.689 131.836 458.689 133.931C458.689 136.026 460.388 137.724 462.483 137.724Z" fill="#E4EAF6"/>
<path d="M587.655 137.724H591.448C593.543 137.724 595.242 136.025 595.242 133.931C595.242 131.836 593.543 130.137 591.448 130.137H587.655C585.56 130.137 583.862 131.836 583.862 133.931C583.862 136.026 585.56 137.724 587.655 137.724Z" fill="#E4EAF6"/>
<path d="M606.621 130.138H602.827C600.733 130.138 599.034 131.836 599.034 133.931C599.034 136.026 600.733 137.724 602.827 137.724H606.621C608.715 137.724 610.414 136.026 610.414 133.931C610.414 131.836 608.715 130.138 606.621 130.138Z" fill="#E4EAF6"/>
<path d="M481.448 137.724H572.483C574.578 137.724 576.276 136.025 576.276 133.931C576.276 131.836 574.578 130.137 572.483 130.137H481.448C479.354 130.137 477.655 131.836 477.655 133.931C477.655 136.026 479.354 137.724 481.448 137.724Z" fill="#E4EAF6"/>
<path d="M606.621 145.31H508V168.069H610.414V149.104C610.414 147.009 608.715 145.31 606.621 145.31ZM534.552 160.483H519.379C517.285 160.483 515.586 158.784 515.586 156.689C515.586 154.595 517.285 152.896 519.379 152.896H534.552C536.646 152.896 538.345 154.595 538.345 156.689C538.345 158.784 536.646 160.483 534.552 160.483ZM564.897 160.483H549.724C547.63 160.483 545.931 158.784 545.931 156.689C545.931 154.595 547.63 152.896 549.724 152.896H564.897C566.991 152.896 568.69 154.595 568.69 156.689C568.69 158.784 566.991 160.483 564.897 160.483ZM595.241 160.483H580.069C577.974 160.483 576.276 158.784 576.276 156.689C576.276 154.595 577.974 152.896 580.069 152.896H595.241C597.336 152.896 599.034 154.595 599.034 156.689C599.034 158.784 597.336 160.483 595.241 160.483Z" fill="#FF6469"/>
<path d="M534.552 152.897H519.379C517.285 152.897 515.586 154.595 515.586 156.69C515.586 158.785 517.285 160.483 519.379 160.483H534.552C536.646 160.483 538.345 158.785 538.345 156.69C538.345 154.595 536.646 152.897 534.552 152.897Z" fill="#D2555F"/>
<path d="M564.897 152.897H549.724C547.63 152.897 545.931 154.595 545.931 156.69C545.931 158.785 547.63 160.483 549.724 160.483H564.897C566.991 160.483 568.69 158.785 568.69 156.69C568.69 154.595 566.991 152.897 564.897 152.897Z" fill="#D2555F"/>
<path d="M595.241 152.897H580.069C577.974 152.897 576.276 154.595 576.276 156.69C576.276 158.785 577.974 160.483 580.069 160.483H595.241C597.336 160.483 599.034 158.785 599.034 156.69C599.034 154.595 597.336 152.897 595.241 152.897Z" fill="#D2555F"/>
<path d="M523.172 221.172H549.724C551.819 221.172 553.517 219.474 553.517 217.379V187.034C553.517 189.129 551.819 190.827 549.724 190.827H523.172C521.077 190.827 519.379 189.129 519.379 187.034V217.379C519.379 219.474 521.077 221.172 523.172 221.172Z" fill="#DEE3ED"/>
<path d="M568.69 221.172H595.241C597.336 221.172 599.034 219.474 599.034 217.379V187.034C599.034 189.129 597.336 190.827 595.241 190.827H568.69C566.595 190.827 564.896 189.129 564.896 187.034V217.379C564.897 219.474 566.595 221.172 568.69 221.172Z" fill="#DEE3ED"/>
<path d="M523.172 190.828H549.724C551.819 190.828 553.517 189.129 553.517 187.034V183.241C553.517 181.146 551.819 179.448 549.724 179.448H523.172C521.077 179.448 519.379 181.146 519.379 183.241V187.034C519.379 189.129 521.077 190.828 523.172 190.828Z" fill="#FF969B"/>
<path d="M568.69 190.828H595.241C597.336 190.828 599.035 189.129 599.035 187.034V183.241C599.035 181.146 597.336 179.448 595.241 179.448H568.69C566.595 179.448 564.896 181.146 564.896 183.241V187.034C564.897 189.129 566.595 190.828 568.69 190.828Z" fill="#A0DCF0"/>
<path d="M530.759 236.345V266.69C530.759 268.785 529.06 270.483 526.966 270.483H595.242C597.336 270.483 599.035 268.785 599.035 266.69V236.345C599.035 234.25 597.336 232.552 595.242 232.552H526.966C529.06 232.552 530.759 234.25 530.759 236.345Z" fill="#DEE3ED"/>
<path d="M523.172 270.483H526.965C529.06 270.483 530.759 268.784 530.759 266.69V236.345C530.759 234.25 529.06 232.551 526.965 232.551H523.172C521.077 232.551 519.379 234.25 519.379 236.345V266.69C519.379 268.784 521.077 270.483 523.172 270.483Z" fill="#91E6BE"/>
<path d="M508 145.31H409.379C407.285 145.31 405.586 147.009 405.586 149.104V168.069V278.069C405.586 280.164 407.285 281.863 409.379 281.863H508V168.069V145.31ZM435.931 156.689H496.621C498.715 156.689 500.414 158.388 500.414 160.483C500.414 162.577 498.715 164.276 496.621 164.276H435.931C433.836 164.276 432.138 162.577 432.138 160.483C432.138 158.388 433.836 156.689 435.931 156.689ZM416.966 156.689H420.759C422.854 156.689 424.552 158.388 424.552 160.483C424.552 162.577 422.854 164.276 420.759 164.276H416.966C414.871 164.276 413.172 162.577 413.172 160.483C413.172 158.388 414.871 156.689 416.966 156.689ZM454.897 179.448H443.517C441.423 179.448 439.724 177.75 439.724 175.655C439.724 173.56 441.423 171.862 443.517 171.862H454.897C456.991 171.862 458.69 173.56 458.69 175.655C458.69 177.75 456.991 179.448 454.897 179.448ZM458.69 190.828C458.69 192.922 456.991 194.621 454.896 194.621H443.517C441.422 194.621 439.724 192.922 439.724 190.828C439.724 188.733 441.422 187.034 443.517 187.034H454.896C456.991 187.034 458.69 188.733 458.69 190.828ZM416.966 217.379H420.759C422.854 217.379 424.552 219.078 424.552 221.173C424.552 223.267 422.854 224.966 420.759 224.966H416.966C414.871 224.966 413.172 223.267 413.172 221.173C413.172 219.078 414.871 217.379 416.966 217.379ZM413.172 206C413.172 203.905 414.871 202.207 416.966 202.207H420.759C422.854 202.207 424.552 203.905 424.552 206C424.552 208.095 422.854 209.793 420.759 209.793H416.966C414.871 209.793 413.172 208.095 413.172 206ZM424.552 232.552H428.345C430.44 232.552 432.138 234.25 432.138 236.345C432.138 238.44 430.44 240.138 428.345 240.138H424.552C422.457 240.138 420.758 238.44 420.758 236.345C420.758 234.25 422.457 232.552 424.552 232.552ZM428.345 194.621H424.552C422.457 194.621 420.758 192.922 420.758 190.827C420.758 188.733 422.457 187.034 424.552 187.034H428.345C430.44 187.034 432.138 188.733 432.138 190.827C432.138 192.922 430.44 194.621 428.345 194.621ZM428.345 179.448H424.552C422.457 179.448 420.758 177.75 420.758 175.655C420.758 173.56 422.457 171.862 424.552 171.862H428.345C430.44 171.862 432.138 173.56 432.138 175.655C432.138 177.75 430.44 179.448 428.345 179.448ZM420.759 270.483H416.966C414.871 270.483 413.172 268.784 413.172 266.689C413.172 264.595 414.871 262.896 416.966 262.896H420.759C422.854 262.896 424.552 264.595 424.552 266.689C424.552 268.784 422.854 270.483 420.759 270.483ZM428.345 255.31H424.552C422.457 255.31 420.758 253.612 420.758 251.517C420.758 249.422 422.457 247.724 424.552 247.724H428.345C430.44 247.724 432.138 249.422 432.138 251.517C432.138 253.612 430.44 255.31 428.345 255.31ZM496.621 270.483H435.931C433.836 270.483 432.138 268.784 432.138 266.689C432.138 264.595 433.836 262.896 435.931 262.896H496.621C498.715 262.896 500.414 264.595 500.414 266.689C500.414 268.784 498.715 270.483 496.621 270.483ZM443.517 247.724H454.897C456.991 247.724 458.69 249.422 458.69 251.517C458.69 253.612 456.991 255.31 454.897 255.31H443.517C441.423 255.31 439.724 253.612 439.724 251.517C439.724 249.422 441.423 247.724 443.517 247.724ZM439.724 236.345C439.724 234.25 441.423 232.552 443.517 232.552H454.897C456.991 232.552 458.69 234.25 458.69 236.345C458.69 238.44 456.991 240.138 454.897 240.138H443.517C441.423 240.138 439.724 238.44 439.724 236.345ZM496.621 255.31H470.069C467.974 255.31 466.276 253.612 466.276 251.517C466.276 249.422 467.974 247.724 470.069 247.724H496.621C498.715 247.724 500.414 249.422 500.414 251.517C500.414 253.612 498.715 255.31 496.621 255.31ZM496.621 240.138H470.069C467.974 240.138 466.276 238.439 466.276 236.345C466.276 234.25 467.974 232.551 470.069 232.551H496.621C498.715 232.551 500.414 234.25 500.414 236.345C500.414 238.439 498.715 240.138 496.621 240.138ZM496.621 224.966H435.931C433.836 224.966 432.138 223.267 432.138 221.172C432.138 219.078 433.836 217.379 435.931 217.379H496.621C498.715 217.379 500.414 219.078 500.414 221.172C500.414 223.267 498.715 224.966 496.621 224.966ZM496.621 209.793H435.931C433.836 209.793 432.138 208.095 432.138 206C432.138 203.905 433.836 202.207 435.931 202.207H496.621C498.715 202.207 500.414 203.905 500.414 206C500.414 208.095 498.715 209.793 496.621 209.793ZM496.621 194.621H470.069C467.974 194.621 466.276 192.922 466.276 190.827C466.276 188.733 467.974 187.034 470.069 187.034H496.621C498.715 187.034 500.414 188.733 500.414 190.827C500.414 192.922 498.715 194.621 496.621 194.621ZM496.621 179.448H470.069C467.974 179.448 466.276 177.75 466.276 175.655C466.276 173.56 467.974 171.862 470.069 171.862H496.621C498.715 171.862 500.414 173.56 500.414 175.655C500.414 177.75 498.715 179.448 496.621 179.448Z" fill="#464655"/>
<path d="M435.931 164.276H496.62C498.715 164.276 500.414 162.578 500.414 160.483C500.414 158.388 498.715 156.69 496.62 156.69H435.931C433.836 156.69 432.138 158.388 432.138 160.483C432.138 162.578 433.836 164.276 435.931 164.276Z" fill="#FFE169"/>
<path d="M454.897 171.862H443.517C441.422 171.862 439.724 173.561 439.724 175.655C439.724 177.75 441.422 179.449 443.517 179.449H454.897C456.991 179.449 458.69 177.75 458.69 175.655C458.689 173.56 456.991 171.862 454.897 171.862Z" fill="#91E6BE"/>
<path d="M454.897 187.034H443.517C441.422 187.034 439.724 188.733 439.724 190.828C439.724 192.922 441.422 194.621 443.517 194.621H454.897C456.991 194.621 458.69 192.922 458.69 190.828C458.69 188.733 456.991 187.034 454.897 187.034Z" fill="#91E6BE"/>
<path d="M496.62 202.207H435.931C433.836 202.207 432.138 203.905 432.138 206C432.138 208.095 433.836 209.793 435.931 209.793H496.62C498.715 209.793 500.414 208.095 500.414 206C500.414 203.905 498.715 202.207 496.62 202.207Z" fill="#FFE169"/>
<path d="M496.62 217.379H435.931C433.836 217.379 432.138 219.078 432.138 221.173C432.138 223.267 433.836 224.966 435.931 224.966H496.62C498.715 224.966 500.414 223.267 500.414 221.173C500.414 219.078 498.715 217.379 496.62 217.379Z" fill="white"/>
<path d="M496.62 171.862H470.069C467.974 171.862 466.275 173.561 466.275 175.655C466.275 177.75 467.974 179.449 470.069 179.449H496.62C498.715 179.449 500.414 177.75 500.414 175.655C500.414 173.56 498.715 171.862 496.62 171.862Z" fill="white"/>
<path d="M496.62 187.034H470.069C467.974 187.034 466.275 188.733 466.275 190.828C466.275 192.922 467.974 194.621 470.069 194.621H496.62C498.715 194.621 500.414 192.922 500.414 190.828C500.414 188.733 498.715 187.034 496.62 187.034Z" fill="white"/>
<path d="M496.62 232.552H470.069C467.974 232.552 466.275 234.25 466.275 236.345C466.275 238.44 467.974 240.138 470.069 240.138H496.62C498.715 240.138 500.414 238.44 500.414 236.345C500.414 234.25 498.715 232.552 496.62 232.552Z" fill="white"/>
<path d="M496.62 247.724H470.069C467.974 247.724 466.275 249.422 466.275 251.517C466.275 253.612 467.974 255.311 470.069 255.311H496.62C498.715 255.311 500.414 253.612 500.414 251.517C500.414 249.422 498.715 247.724 496.62 247.724Z" fill="white"/>
<path d="M443.517 240.138H454.897C456.991 240.138 458.69 238.439 458.69 236.345C458.69 234.25 456.991 232.551 454.897 232.551H443.517C441.422 232.551 439.724 234.25 439.724 236.345C439.724 238.439 441.422 240.138 443.517 240.138Z" fill="#91E6BE"/>
<path d="M443.517 255.311H454.897C456.991 255.311 458.69 253.612 458.69 251.517C458.69 249.423 456.991 247.724 454.897 247.724H443.517C441.422 247.724 439.724 249.423 439.724 251.517C439.724 253.612 441.422 255.311 443.517 255.311Z" fill="#91E6BE"/>
<path d="M496.62 262.897H435.931C433.836 262.897 432.138 264.595 432.138 266.69C432.138 268.785 433.836 270.483 435.931 270.483H496.62C498.715 270.483 500.414 268.785 500.414 266.69C500.414 264.595 498.715 262.897 496.62 262.897Z" fill="#FFE169"/>
<path d="M416.966 164.276H420.759C422.854 164.276 424.552 162.578 424.552 160.483C424.552 158.388 422.854 156.69 420.759 156.69H416.966C414.871 156.69 413.172 158.388 413.172 160.483C413.172 162.578 414.871 164.276 416.966 164.276Z" fill="#FF6469"/>
<path d="M428.345 171.862H424.552C422.457 171.862 420.759 173.561 420.759 175.655C420.759 177.75 422.457 179.449 424.552 179.449H428.345C430.44 179.449 432.138 177.75 432.138 175.655C432.138 173.56 430.44 171.862 428.345 171.862Z" fill="#FF6469"/>
<path d="M428.345 187.034H424.552C422.457 187.034 420.759 188.733 420.759 190.828C420.759 192.922 422.457 194.621 424.552 194.621H428.345C430.44 194.621 432.138 192.922 432.138 190.828C432.138 188.733 430.44 187.034 428.345 187.034Z" fill="#FF6469"/>
<path d="M416.966 209.793H420.759C422.854 209.793 424.552 208.095 424.552 206C424.552 203.905 422.854 202.207 420.759 202.207H416.966C414.871 202.207 413.172 203.905 413.172 206C413.172 208.095 414.871 209.793 416.966 209.793Z" fill="#FF6469"/>
<path d="M416.966 224.966H420.759C422.854 224.966 424.552 223.267 424.552 221.172C424.552 219.078 422.854 217.379 420.759 217.379H416.966C414.871 217.379 413.172 219.078 413.172 221.172C413.172 223.267 414.871 224.966 416.966 224.966Z" fill="#FF6469"/>
<path d="M424.552 240.138H428.345C430.44 240.138 432.138 238.439 432.138 236.345C432.138 234.25 430.44 232.551 428.345 232.551H424.552C422.457 232.551 420.759 234.25 420.759 236.345C420.759 238.439 422.457 240.138 424.552 240.138Z" fill="#FF6469"/>
<path d="M428.345 247.724H424.552C422.457 247.724 420.759 249.422 420.759 251.517C420.759 253.612 422.457 255.311 424.552 255.311H428.345C430.44 255.311 432.138 253.612 432.138 251.517C432.138 249.422 430.44 247.724 428.345 247.724Z" fill="#FF6469"/>
<path d="M420.759 262.897H416.966C414.871 262.897 413.172 264.595 413.172 266.69C413.172 268.785 414.871 270.483 416.966 270.483H420.759C422.854 270.483 424.552 268.785 424.552 266.69C424.552 264.595 422.854 262.897 420.759 262.897Z" fill="#FF6469"/>
</g>
<defs>
<clipPath id="clip0">
<rect width="648" height="427" fill="white"/>
</clipPath>
</defs>
</svg>
